<svg xml:space="preserve" width="32" height="32" xmlns="http://www.w3.org/2000/svg"><g transform="scale(.0625)"><circle style="fill:#386895" cx="256" cy="256" r="256"/><path style="fill:#273b7a" d="m511.902 249.006-49.895-49.895-149.118 28.444L84.471 357.047l154.367 154.367c5.674.376 11.394.586 17.162.586 141.384 0 256-114.616 256-256 0-2.339-.036-4.67-.098-6.994z"/><path style="fill:#fff" d="m462.007 199.111-102.815-89.967c-4.387-3.839-11.89-1.121-11.89 4.31v39.776h-171.48c-6.654 0-12.05 4.72-12.05 10.545v70.677c0 5.823 5.396 10.545 12.05 10.545H347.3v39.776c0 5.43 7.502 8.149 11.89 4.31z"/><path style="fill:#fee187" d="M84.471 199.111H321.37v157.927H84.471z"/><path style="fill:#ffc61b" d="M202.852 199.111h118.529v157.927H202.852z"/><path style="fill:#e59413" d="M202.924 278.08 84.471 199.111h236.905z"/><path style="fill:#d48b07" d="m202.847 278.028.077.052 118.452-78.969H202.847z"/></g></svg>