<?xml version="1.0" encoding="UTF-8" standalone="no"?>
<svg
   width="157.875"
   height="32"
   version="1.1"
   id="svg2"
   sodipodi:docname="linkedin.svg"
   xmlns:inkscape="http://www.inkscape.org/namespaces/inkscape"
   xmlns:sodipodi="http://sodipodi.sourceforge.net/DTD/sodipodi-0.dtd"
   xmlns="http://www.w3.org/2000/svg"
   xmlns:svg="http://www.w3.org/2000/svg">
  <defs
     id="defs2" />
  <sodipodi:namedview
     id="namedview2"
     pagecolor="#ffffff"
     bordercolor="#000000"
     borderopacity="0.25"
     inkscape:showpageshadow="2"
     inkscape:pageopacity="0.0"
     inkscape:pagecheckerboard="0"
     inkscape:deskcolor="#d1d1d1" />
  <g
     id="g2"
     inkscape:export-filename="g2.png"
     inkscape:export-xdpi="96"
     inkscape:export-ydpi="96">
    <path
       d="M 0,0 H 157.875 V 32 H 0 Z"
       style="display:inline;fill:#0077b5;fill-opacity:1;stroke-width:1.08672"
       id="path1" />
    <path
       d="M 23,4 H 9 A 5,5 0 0 0 4,9 v 14 a 5,5 0 0 0 5,5 h 14 a 5,5 0 0 0 5,-5 V 9 A 5,5 0 0 0 23,4 Z M 12,23 H 9 V 12 h 3 z M 10.5,10.732 c -0.966,0 -1.75,-0.79 -1.75,-1.764 0,-0.974 0.784,-1.764 1.75,-1.764 0.966,0 1.75,0.79 1.75,1.764 0,0.974 -0.783,1.764 -1.75,1.764 z M 24,23 h -3 v -5.604 c 0,-3.368 -4,-3.113 -4,0 V 23 H 14 V 12 h 3 v 1.765 c 1.396,-2.586 7,-2.777 7,2.476 z"
       style="fill:#f9f9f9;fill-opacity:1"
       id="path2" />
    <text
       xml:space="preserve"
       x="30.580999"
       y="22.533001"
       style="font-style:normal;font-variant:normal;font-weight:500;font-stretch:normal;font-size:18.6665px;font-family:'Helvetica Neue';-inkscape-font-specification:'Helvetica Neue, Medium';font-variant-ligatures:normal;font-variant-caps:normal;font-variant-numeric:normal;font-variant-east-asian:normal;fill:#f9f9f9;fill-opacity:1;stroke-width:0.999988"
       transform="scale(1.00001,0.99999)"
       id="text2"><tspan
         x="30.580999"
         y="22.533001"
         style="font-style:normal;font-variant:normal;font-weight:500;font-stretch:normal;font-size:18.6665px;font-family:'Helvetica Neue';-inkscape-font-specification:'Helvetica Neue, Medium';font-variant-ligatures:normal;font-variant-caps:normal;font-variant-numeric:normal;font-variant-east-asian:normal;fill:#f9f9f9;stroke-width:0.999988"
         id="tspan2">Ihar Katkavets</tspan></text>
  </g>
</svg>
