<svg xmlns="http://www.w3.org/2000/svg" width="157.875" height="32"><path d="M0 0h157.875v32H0z" style="display:inline;fill:#0077b5;fill-opacity:1;stroke-width:1.08672"/><path d="M23 4H9a5 5 0 0 0-5 5v14a5 5 0 0 0 5 5h14a5 5 0 0 0 5-5V9a5 5 0 0 0-5-5ZM12 23H9V12h3zm-1.5-12.268c-.966 0-1.75-.79-1.75-1.764s.784-1.764 1.75-1.764 1.75.79 1.75 1.764-.783 1.764-1.75 1.764zM24 23h-3v-5.604c0-3.368-4-3.113-4 0V23h-3V12h3v1.765c1.396-2.586 7-2.777 7 2.476z" style="fill:#f9f9f9;fill-opacity:1"/><text xml:space="preserve" x="30.581" y="22.533" style="font-style:normal;font-variant:normal;font-weight:500;font-stretch:normal;font-size:18.6665px;font-family:&quot;Helvetica Neue&quot;;-inkscape-font-specification:&quot;Helvetica Neue, Medium&quot;;font-variant-ligatures:normal;font-variant-caps:normal;font-variant-numeric:normal;font-variant-east-asian:normal;fill:#f9f9f9;fill-opacity:1;stroke-width:.999988" transform="scale(1.00001 .99999)"><tspan x="30.581" y="22.533" style="font-style:normal;font-variant:normal;font-weight:500;font-stretch:normal;font-size:18.6665px;font-family:&quot;Helvetica Neue&quot;;-inkscape-font-specification:&quot;Helvetica Neue, Medium&quot;;font-variant-ligatures:normal;font-variant-caps:normal;font-variant-numeric:normal;font-variant-east-asian:normal;fill:#f9f9f9;stroke-width:.999988">Ihar Katkavets</tspan></text></svg>