<svg height="32" width="32" xmlns="http://www.w3.org/2000/svg"><defs><linearGradient id="a" x1="8.393" y1="1.106" x2="11.125" y2="18.354" gradientUnits="userSpaceOnUse"><stop offset=".012" stop-color="#00b7f0"/><stop offset=".339" stop-color="#009de5"/><stop offset=".755" stop-color="#0082d9"/><stop offset="1" stop-color="#0078d4"/></linearGradient><linearGradient id="b" x1="14.379" y1="26.645" x2="29.546" y2="17.889" gradientUnits="userSpaceOnUse"><stop offset="0" stop-color="#0078d4"/><stop offset=".37" stop-color="#007ad5"/><stop offset=".573" stop-color="#0082d9"/><stop offset=".735" stop-color="#0090df"/><stop offset=".875" stop-color="#00a3e7"/><stop offset="1" stop-color="#00bcf2"/></linearGradient><linearGradient id="c" x1="10.45" y1="6.689" x2="24.291" y2="30.662" gradientUnits="userSpaceOnUse"><stop offset="0" stop-color="#00b7f0"/><stop offset="1" stop-color="#007cc1"/></linearGradient></defs><path d="M18.518 9.73a8.759 8.73 0 0 1-8.759 8.73A8.759 8.73 0 0 1 1 9.73 8.759 8.73 0 0 1 9.759 1a8.759 8.73 0 0 1 8.759 8.73" transform="matrix(1.06667 0 0 1.06667 -1.067 -1.066)" style="fill:url(#a)"/><path d="M30.725 22.267A8.762 8.733 0 0 1 21.963 31a8.762 8.733 0 0 1-8.762-8.733 8.762 8.733 0 0 1 8.762-8.733 8.762 8.733 0 0 1 8.762 8.733" transform="matrix(1.06667 0 0 1.06667 -1.067 -1.066)" style="fill:url(#b)"/><path d="M.034 10.11A9.342 9.342 0 1 0 10.506.071 16.976 16.976 0 0 0 .034 10.109Z" fill-rule="evenodd" opacity=".05"/><path d="M31.682 22.016a9.345 9.345 0 1 0-10.168 9.946 16.976 16.976 0 0 0 10.168-9.947Z" fill-rule="evenodd" opacity=".05"/><path d="M.471 12.238A9.339 9.339 0 1 0 12.63.593 15.886 15.886 0 0 0 .471 12.238Z" fill-rule="evenodd" opacity=".1"/><path d="M31.258 19.828a9.342 9.342 0 1 0-11.939 11.668 15.886 15.886 0 0 0 11.939-11.668Z" fill-rule="evenodd" opacity=".1"/><path d="M.815 13.121A9.337 9.337 0 1 0 13.502.972 15.346 15.346 0 0 0 .815 13.122Z" fill-rule="evenodd" opacity=".1"/><path d="M30.913 18.926a9.34 9.34 0 1 0-12.494 12.207 15.345 15.345 0 0 0 12.494-12.207Z" fill-rule="evenodd" opacity=".1"/><path d="M29.737 16.065a13.873 13.827 0 0 1-13.873 13.827A13.873 13.827 0 0 1 1.991 16.065 13.873 13.827 0 0 1 15.864 2.238a13.873 13.827 0 0 1 13.873 13.827" transform="matrix(1.06667 0 0 1.06667 -1.067 -1.066)" style="fill:url(#c)"/><path d="M11.694 15.558a4.649 4.649 0 0 1-1.458-1.538 4.252 4.252 0 0 1-.5-2.126 3.82 3.82 0 0 1 .9-2.573 5.419 5.419 0 0 1 2.347-1.568 9.061 9.061 0 0 1 3.072-.517 11.93 11.93 0 0 1 2.044.156 7.38 7.38 0 0 1 1.418.366 2.748 2.748 0 0 1 1.11.708 1.434 1.434 0 0 1 .342.953 1.38 1.38 0 0 1-.361.993 1.199 1.199 0 0 1-.906.378 1.63 1.63 0 0 1-.673-.152 12.196 12.196 0 0 0-1.603-.586 5.819 5.819 0 0 0-1.544-.192 3.525 3.525 0 0 0-1.935.494 1.61 1.61 0 0 0-.773 1.446 1.454 1.454 0 0 0 .401 1.016 3.654 3.654 0 0 0 1.081.774q.68.337 2.027.894a2.101 2.101 0 0 1 .29.116 14.397 14.397 0 0 1 2.509 1.29 5.058 5.058 0 0 1 1.544 1.584 4.181 4.181 0 0 1 .558 2.202 4.428 4.428 0 0 1-.772 2.654 4.59 4.59 0 0 1-2.16 1.603 9.106 9.106 0 0 1-3.247.53 10.23 10.23 0 0 1-4.426-.838 2.409 2.409 0 0 1-.91-.708 1.593 1.593 0 0 1-.297-.965 1.26 1.26 0 0 1 .389-.981 1.435 1.435 0 0 1 1.004-.354 2.567 2.567 0 0 1 1.173.302q.674.337 1.064.505a5.342 5.342 0 0 0 .917.29 5.248 5.248 0 0 0 1.179.122 3.147 3.147 0 0 0 1.98-.528 1.744 1.744 0 0 0 .668-1.446 1.536 1.536 0 0 0-.418-1.056 4.445 4.445 0 0 0-1.231-.896q-.814-.43-2.289-1.046a14.177 14.177 0 0 1-2.514-1.306" fill="#fff" fill-rule="evenodd"/></svg>